<mxfile host="65bd71144e">
    <diagram name="Page-1" id="QbVM-qhq_BF2LXNoguQ5">
        <mxGraphModel dx="1012" dy="593" grid="1" gridSize="10" guides="1" tooltips="1" connect="1" arrows="1" fold="1" page="1" pageScale="1" pageWidth="850" pageHeight="1100" math="0" shadow="0">
            <root>
                <mxCell id="0"/>
                <mxCell id="1" parent="0"/>
                <mxCell id="69" value="" style="rounded=0;whiteSpace=wrap;html=1;fontStyle=0;fontFamily=CMU Sans Serif;labelBackgroundColor=none;fillColor=none;dashed=1;strokeColor=#808080;glass=0;" vertex="1" parent="1">
                    <mxGeometry x="140" y="110" width="640" height="560" as="geometry"/>
                </mxCell>
                <mxCell id="70" value="Root Aggregator" style="text;align=center;verticalAlign=middle;resizable=0;points=[];autosize=1;strokeColor=none;fillColor=none;fontStyle=0;fontSize=20;fontFamily=CMU Sans Serif;" vertex="1" parent="1">
                    <mxGeometry x="382.27000000000004" y="10" width="160" height="40" as="geometry"/>
                </mxCell>
                <mxCell id="71" value="" style="rounded=0;whiteSpace=wrap;html=1;fontStyle=0;fontFamily=CMU Sans Serif;" vertex="1" parent="1">
                    <mxGeometry x="150" y="117" width="623" height="449.36" as="geometry"/>
                </mxCell>
                <mxCell id="72" value="&lt;font color=&quot;#000000&quot; style=&quot;font-size: 18px;&quot;&gt;Cluster Aggregator as Learner (Flower Client)&lt;/font&gt;" style="rounded=0;whiteSpace=wrap;html=1;fillColor=#99FFFF;strokeColor=#006EAF;fontStyle=0;fontFamily=CMU Sans Serif;strokeWidth=2;verticalAlign=bottom;fontColor=#ffffff;" vertex="1" parent="1">
                    <mxGeometry x="158" y="124" width="608" height="436" as="geometry"/>
                </mxCell>
                <mxCell id="73" value="&lt;font color=&quot;#000000&quot; style=&quot;font-size: 18px;&quot;&gt;Cluster Aggregator Model Manager&lt;/font&gt;" style="rounded=0;whiteSpace=wrap;html=1;fillColor=#66B2FF;strokeColor=#66B2FF;fontStyle=0;fontFamily=CMU Sans Serif;strokeWidth=2;verticalAlign=bottom;" vertex="1" parent="1">
                    <mxGeometry x="165" y="131.36" width="595" height="400" as="geometry"/>
                </mxCell>
                <mxCell id="74" value="&lt;font color=&quot;#000000&quot; style=&quot;font-size: 18px;&quot;&gt;&lt;b&gt;Classic Aggregator&lt;/b&gt;&lt;/font&gt;" style="rounded=0;whiteSpace=wrap;html=1;fillColor=#9999FF;strokeColor=#000000;fontStyle=0;fontFamily=CMU Sans Serif;strokeWidth=1;verticalAlign=bottom;" vertex="1" parent="1">
                    <mxGeometry x="366" y="219" width="190" height="161" as="geometry"/>
                </mxCell>
                <mxCell id="75" style="edgeStyle=orthogonalEdgeStyle;rounded=1;orthogonalLoop=1;jettySize=auto;html=1;exitX=0;exitY=0.75;exitDx=0;exitDy=0;entryX=0.5;entryY=0;entryDx=0;entryDy=0;curved=0;" edge="1" parent="1" source="78" target="98">
                    <mxGeometry relative="1" as="geometry"/>
                </mxCell>
                <mxCell id="76" style="edgeStyle=orthogonalEdgeStyle;rounded=1;orthogonalLoop=1;jettySize=auto;html=1;exitX=1;exitY=0.75;exitDx=0;exitDy=0;entryX=0.5;entryY=0;entryDx=0;entryDy=0;curved=0;" edge="1" parent="1" source="78" target="99">
                    <mxGeometry relative="1" as="geometry"/>
                </mxCell>
                <mxCell id="77" style="edgeStyle=orthogonalEdgeStyle;rounded=1;orthogonalLoop=1;jettySize=auto;html=1;exitX=1;exitY=0.25;exitDx=0;exitDy=0;entryX=0.5;entryY=0;entryDx=0;entryDy=0;curved=0;" edge="1" parent="1" source="78" target="101">
                    <mxGeometry relative="1" as="geometry"/>
                </mxCell>
                <mxCell id="78" value="&lt;b style=&quot;font-size: 40px;&quot;&gt;&lt;font style=&quot;color: rgb(255, 255, 0);&quot;&gt;M&lt;/font&gt;&lt;/b&gt;" style="rounded=1;whiteSpace=wrap;html=1;fontStyle=0;fontFamily=CMU Sans Serif;strokeWidth=1;" vertex="1" parent="1">
                    <mxGeometry x="431.88" y="50" width="47.73" height="47" as="geometry"/>
                </mxCell>
                <mxCell id="79" value="Cluster Aggregator" style="text;align=center;verticalAlign=middle;resizable=0;points=[];autosize=1;strokeColor=none;fillColor=none;fontStyle=0;fontSize=20;fontFamily=CMU Sans Serif;" vertex="1" parent="1">
                    <mxGeometry x="371.50000000000006" y="566.36" width="180" height="40" as="geometry"/>
                </mxCell>
                <mxCell id="80" value="&lt;span style=&quot;font-size: 18px;&quot;&gt;User ML Code - Model Manager&lt;/span&gt;" style="rounded=1;whiteSpace=wrap;html=1;fillColor=#FFFFFF;strokeColor=none;fontStyle=0;fontFamily=CMU Sans Serif;strokeWidth=2;align=center;verticalAlign=bottom;fontColor=#000000;" vertex="1" parent="1">
                    <mxGeometry x="255.61" y="417" width="411.97" height="73" as="geometry"/>
                </mxCell>
                <mxCell id="81" value="&lt;b style=&quot;forced-color-adjust: none; font-family: &amp;quot;CMU Sans Serif&amp;quot;; font-style: normal; font-variant-ligatures: normal; font-variant-caps: normal; letter-spacing: normal; orphans: 2; text-align: center; text-indent: 0px; text-transform: none; widows: 2; word-spacing: 0px; -webkit-text-stroke-width: 0px; white-space: normal; text-decoration-thickness: initial; text-decoration-style: initial; text-decoration-color: initial; font-size: 40px;&quot;&gt;&lt;font style=&quot;forced-color-adjust: none; color: rgb(255, 102, 255);&quot;&gt;M&lt;/font&gt;&lt;/b&gt;" style="text;whiteSpace=wrap;html=1;labelBackgroundColor=none;" vertex="1" parent="1">
                    <mxGeometry x="438.64" y="420" width="47.73" height="70" as="geometry"/>
                </mxCell>
                <mxCell id="82" style="edgeStyle=orthogonalEdgeStyle;rounded=0;orthogonalLoop=1;jettySize=auto;html=1;strokeColor=#000000;startArrow=classic;startFill=1;endArrow=none;" edge="1" parent="1" source="83">
                    <mxGeometry relative="1" as="geometry">
                        <mxPoint x="442" y="445" as="targetPoint"/>
                    </mxGeometry>
                </mxCell>
                <mxCell id="83" value="&lt;span style=&quot;font-size: 18px;&quot;&gt;getParameters()&lt;/span&gt;" style="rounded=1;whiteSpace=wrap;html=1;fillColor=#999999;strokeColor=none;fontStyle=0;fontFamily=CMU Sans Serif;strokeWidth=2;align=center;verticalAlign=middle;fontColor=#FFFFFF;" vertex="1" parent="1">
                    <mxGeometry x="271.29" y="430" width="133.64" height="30" as="geometry"/>
                </mxCell>
                <mxCell id="84" value="&lt;span style=&quot;font-size: 18px;&quot;&gt;setParameters()&lt;/span&gt;" style="rounded=1;whiteSpace=wrap;html=1;fillColor=#999999;strokeColor=none;fontStyle=0;fontFamily=CMU Sans Serif;strokeWidth=2;align=center;verticalAlign=middle;fontColor=#FFFFFF;" vertex="1" parent="1">
                    <mxGeometry x="519.61" y="430" width="133.64" height="30" as="geometry"/>
                </mxCell>
                <mxCell id="85" style="edgeStyle=orthogonalEdgeStyle;rounded=0;orthogonalLoop=1;jettySize=auto;html=1;exitX=0.5;exitY=0;exitDx=0;exitDy=0;strokeColor=#000000;" edge="1" parent="1" source="90" target="92">
                    <mxGeometry relative="1" as="geometry"/>
                </mxCell>
                <mxCell id="86" value="Update()" style="edgeLabel;html=1;align=center;verticalAlign=middle;resizable=0;points=[];labelBackgroundColor=light-dark(#9C99F8, #9c99f8);fontColor=#000000;fontFamily=CMU Sans Serif;fontSize=20;" vertex="1" connectable="0" parent="85">
                    <mxGeometry x="0.1556" relative="1" as="geometry">
                        <mxPoint y="5" as="offset"/>
                    </mxGeometry>
                </mxCell>
                <mxCell id="87" style="edgeStyle=orthogonalEdgeStyle;rounded=1;orthogonalLoop=1;jettySize=auto;html=1;exitX=1;exitY=0.75;exitDx=0;exitDy=0;curved=0;strokeColor=#000000;" edge="1" parent="1" source="90" target="84">
                    <mxGeometry relative="1" as="geometry"/>
                </mxCell>
                <mxCell id="88" style="edgeStyle=orthogonalEdgeStyle;rounded=1;orthogonalLoop=1;jettySize=auto;html=1;exitX=1;exitY=0.25;exitDx=0;exitDy=0;entryX=1;entryY=0.5;entryDx=0;entryDy=0;dashed=1;strokeColor=#9933FF;strokeWidth=3;dashPattern=1 1;curved=0;endArrow=none;startFill=0;" edge="1" parent="1" source="90" target="104">
                    <mxGeometry relative="1" as="geometry">
                        <Array as="points">
                            <mxPoint x="730" y="324"/>
                            <mxPoint x="730" y="614"/>
                        </Array>
                    </mxGeometry>
                </mxCell>
                <mxCell id="89" style="edgeStyle=orthogonalEdgeStyle;rounded=1;orthogonalLoop=1;jettySize=auto;html=1;exitX=0;exitY=0.5;exitDx=0;exitDy=0;entryX=0;entryY=0.5;entryDx=0;entryDy=0;curved=0;dashed=1;dashPattern=1 1;strokeColor=#B266FF;strokeWidth=3;endArrow=none;startFill=0;" edge="1" parent="1" source="90" target="105">
                    <mxGeometry relative="1" as="geometry">
                        <Array as="points">
                            <mxPoint x="200" y="331"/>
                            <mxPoint x="200" y="614"/>
                        </Array>
                    </mxGeometry>
                </mxCell>
                <mxCell id="90" value="&lt;span style=&quot;font-size: 18px;&quot;&gt;handleAggregator()&lt;/span&gt;" style="rounded=1;whiteSpace=wrap;html=1;fillColor=#6600CC;strokeColor=none;fontStyle=0;fontFamily=CMU Sans Serif;strokeWidth=2;align=center;verticalAlign=middle;fontColor=#FFFFFF;" vertex="1" parent="1">
                    <mxGeometry x="377.18" y="316.36" width="168.64" height="30" as="geometry"/>
                </mxCell>
                <mxCell id="91" style="edgeStyle=orthogonalEdgeStyle;rounded=1;orthogonalLoop=1;jettySize=auto;html=1;entryX=0.75;entryY=1;entryDx=0;entryDy=0;curved=0;strokeColor=#000000;" edge="1" parent="1" source="92" target="98">
                    <mxGeometry relative="1" as="geometry"/>
                </mxCell>
                <mxCell id="92" value="&lt;span style=&quot;font-size: 18px;&quot;&gt;strategy &amp;amp;&lt;br&gt;context&lt;/span&gt;" style="rounded=1;whiteSpace=wrap;html=1;fillColor=#6600CC;strokeColor=none;fontStyle=0;fontFamily=CMU Sans Serif;strokeWidth=2;align=center;verticalAlign=middle;fontColor=#FFFFFF;" vertex="1" parent="1">
                    <mxGeometry x="413.03000000000003" y="230" width="97.14" height="50" as="geometry"/>
                </mxCell>
                <mxCell id="93" style="edgeStyle=orthogonalEdgeStyle;rounded=1;orthogonalLoop=1;jettySize=auto;html=1;entryX=0.004;entryY=0.692;entryDx=0;entryDy=0;exitX=0.39;exitY=0.99;exitDx=0;exitDy=0;exitPerimeter=0;curved=0;entryPerimeter=0;strokeColor=#000000;" edge="1" parent="1" source="95" target="83">
                    <mxGeometry relative="1" as="geometry"/>
                </mxCell>
                <mxCell id="94" style="edgeStyle=orthogonalEdgeStyle;rounded=1;orthogonalLoop=1;jettySize=auto;html=1;exitX=0.614;exitY=0;exitDx=0;exitDy=0;entryX=0;entryY=0.5;entryDx=0;entryDy=0;exitPerimeter=0;curved=0;" edge="1" parent="1" source="95" target="78">
                    <mxGeometry relative="1" as="geometry"/>
                </mxCell>
                <mxCell id="95" value="&lt;span style=&quot;font-size: 18px;&quot;&gt;getParameters()&lt;/span&gt;" style="rounded=1;whiteSpace=wrap;html=1;fillColor=#FFFFFF;strokeColor=none;fontStyle=0;fontFamily=CMU Sans Serif;strokeWidth=2;align=center;verticalAlign=middle;fontColor=#000000;" vertex="1" parent="1">
                    <mxGeometry x="170" y="150" width="133.64" height="30" as="geometry"/>
                </mxCell>
                <mxCell id="96" style="edgeStyle=orthogonalEdgeStyle;rounded=1;orthogonalLoop=1;jettySize=auto;html=1;entryX=0;entryY=0.5;entryDx=0;entryDy=0;curved=0;strokeColor=#000000;" edge="1" parent="1" source="98" target="92">
                    <mxGeometry relative="1" as="geometry"/>
                </mxCell>
                <mxCell id="97" style="edgeStyle=orthogonalEdgeStyle;rounded=1;orthogonalLoop=1;jettySize=auto;html=1;exitX=0.75;exitY=0;exitDx=0;exitDy=0;curved=0;" edge="1" parent="1" source="98" target="78">
                    <mxGeometry relative="1" as="geometry">
                        <Array as="points">
                            <mxPoint x="420" y="110"/>
                            <mxPoint x="456" y="110"/>
                        </Array>
                    </mxGeometry>
                </mxCell>
                <mxCell id="98" value="&lt;span style=&quot;font-size: 18px;&quot;&gt;evaluateModel()&lt;/span&gt;" style="rounded=1;whiteSpace=wrap;html=1;fillColor=#FFFFFF;strokeColor=none;fontStyle=0;fontFamily=CMU Sans Serif;strokeWidth=2;align=center;verticalAlign=middle;fontColor=#000000;" vertex="1" parent="1">
                    <mxGeometry x="320" y="150" width="133.64" height="30" as="geometry"/>
                </mxCell>
                <mxCell id="99" value="&lt;span style=&quot;font-size: 18px;&quot;&gt;fitModel()&lt;/span&gt;" style="rounded=1;whiteSpace=wrap;html=1;fillColor=#FFFFFF;strokeColor=none;fontStyle=0;fontFamily=CMU Sans Serif;strokeWidth=2;align=center;verticalAlign=middle;fontColor=#000000;" vertex="1" parent="1">
                    <mxGeometry x="462" y="150" width="133.64" height="30" as="geometry"/>
                </mxCell>
                <mxCell id="100" style="edgeStyle=orthogonalEdgeStyle;rounded=1;orthogonalLoop=1;jettySize=auto;html=1;entryX=1;entryY=0.5;entryDx=0;entryDy=0;curved=0;strokeColor=#000000;" edge="1" parent="1" source="101" target="84">
                    <mxGeometry relative="1" as="geometry"/>
                </mxCell>
                <mxCell id="101" value="&lt;span style=&quot;font-size: 18px;&quot;&gt;setParameters()&lt;/span&gt;" style="rounded=1;whiteSpace=wrap;html=1;fillColor=#FFFFFF;strokeColor=none;fontStyle=0;fontFamily=CMU Sans Serif;strokeWidth=2;align=center;verticalAlign=middle;fontColor=#000000;" vertex="1" parent="1">
                    <mxGeometry x="620" y="150" width="133.64" height="30" as="geometry"/>
                </mxCell>
                <mxCell id="102" style="edgeStyle=orthogonalEdgeStyle;rounded=0;orthogonalLoop=1;jettySize=auto;html=1;exitX=0;exitY=0.5;exitDx=0;exitDy=0;entryX=0.79;entryY=0.359;entryDx=0;entryDy=0;entryPerimeter=0;strokeColor=#000000;" edge="1" parent="1" source="84" target="81">
                    <mxGeometry relative="1" as="geometry"/>
                </mxCell>
                <mxCell id="103" value="&lt;b style=&quot;forced-color-adjust: none; font-family: &amp;quot;CMU Sans Serif&amp;quot;; font-style: normal; font-variant-ligatures: normal; font-variant-caps: normal; letter-spacing: normal; orphans: 2; text-align: center; text-indent: 0px; text-transform: none; widows: 2; word-spacing: 0px; -webkit-text-stroke-width: 0px; white-space: normal; text-decoration-thickness: initial; text-decoration-style: initial; text-decoration-color: initial; font-size: 40px;&quot;&gt;&lt;font style=&quot;forced-color-adjust: none; color: rgb(255, 102, 255);&quot;&gt;P&lt;/font&gt;&lt;/b&gt;" style="text;whiteSpace=wrap;html=1;labelBackgroundColor=none;" vertex="1" parent="1">
                    <mxGeometry x="578" y="346.36" width="30" height="43" as="geometry"/>
                </mxCell>
                <mxCell id="104" value="&lt;b style=&quot;font-size: 40px;&quot;&gt;&lt;font style=&quot;color: rgb(102, 255, 255);&quot;&gt;MD&lt;/font&gt;&lt;/b&gt;" style="rounded=1;whiteSpace=wrap;html=1;fontStyle=0;fontFamily=CMU Sans Serif;strokeWidth=1;" vertex="1" parent="1">
                    <mxGeometry x="598.9999999999999" y="590" width="80" height="48.5" as="geometry"/>
                </mxCell>
                <mxCell id="105" value="&lt;b style=&quot;font-size: 40px;&quot;&gt;&lt;font style=&quot;color: rgb(255, 102, 102);&quot;&gt;MD&lt;/font&gt;&lt;/b&gt;" style="rounded=1;whiteSpace=wrap;html=1;fontStyle=0;fontFamily=CMU Sans Serif;strokeWidth=1;" vertex="1" parent="1">
                    <mxGeometry x="255.61" y="590" width="80" height="48.5" as="geometry"/>
                </mxCell>
                <mxCell id="106" value="&lt;b style=&quot;forced-color-adjust: none; font-family: &amp;quot;CMU Sans Serif&amp;quot;; font-style: normal; font-variant-ligatures: normal; font-variant-caps: normal; letter-spacing: normal; orphans: 2; text-align: center; text-indent: 0px; text-transform: none; widows: 2; word-spacing: 0px; -webkit-text-stroke-width: 0px; white-space: normal; text-decoration-thickness: initial; text-decoration-style: initial; text-decoration-color: initial; font-size: 40px;&quot;&gt;&lt;font style=&quot;forced-color-adjust: none; color: rgb(255, 255, 0);&quot;&gt;P&lt;/font&gt;&lt;/b&gt;" style="text;whiteSpace=wrap;html=1;labelBackgroundColor=none;" vertex="1" parent="1">
                    <mxGeometry x="679" y="347" width="30" height="43" as="geometry"/>
                </mxCell>
                <mxCell id="107" style="edgeStyle=orthogonalEdgeStyle;rounded=1;orthogonalLoop=1;jettySize=auto;html=1;entryX=0.608;entryY=0.971;entryDx=0;entryDy=0;entryPerimeter=0;exitX=0.001;exitY=0.309;exitDx=0;exitDy=0;curved=0;exitPerimeter=0;strokeColor=#000000;" edge="1" parent="1" source="83" target="95">
                    <mxGeometry relative="1" as="geometry"/>
                </mxCell>
                <mxCell id="108" value="&lt;b style=&quot;forced-color-adjust: none; font-family: &amp;quot;CMU Sans Serif&amp;quot;; font-style: normal; font-variant-ligatures: normal; font-variant-caps: normal; letter-spacing: normal; orphans: 2; text-align: center; text-indent: 0px; text-transform: none; widows: 2; word-spacing: 0px; -webkit-text-stroke-width: 0px; white-space: normal; text-decoration-thickness: initial; text-decoration-style: initial; text-decoration-color: initial; font-size: 40px;&quot;&gt;&lt;font style=&quot;forced-color-adjust: none; color: rgb(255, 102, 255);&quot;&gt;P&lt;/font&gt;&lt;/b&gt;" style="text;whiteSpace=wrap;html=1;labelBackgroundColor=none;" vertex="1" parent="1">
                    <mxGeometry x="243.18" y="347" width="30" height="43" as="geometry"/>
                </mxCell>
                <mxCell id="109" style="edgeStyle=orthogonalEdgeStyle;rounded=0;orthogonalLoop=1;jettySize=auto;html=1;entryX=0.904;entryY=0.015;entryDx=0;entryDy=0;entryPerimeter=0;fontColor=#000000;strokeColor=#000000;" edge="1" parent="1" source="99" target="90">
                    <mxGeometry relative="1" as="geometry"/>
                </mxCell>
                <mxCell id="110" value="&lt;b style=&quot;forced-color-adjust: none; font-family: &amp;quot;CMU Sans Serif&amp;quot;; font-style: normal; font-variant-ligatures: normal; font-variant-caps: normal; letter-spacing: normal; orphans: 2; text-align: center; text-indent: 0px; text-transform: none; widows: 2; word-spacing: 0px; -webkit-text-stroke-width: 0px; white-space: normal; text-decoration-thickness: initial; text-decoration-style: initial; text-decoration-color: initial; font-size: 40px;&quot;&gt;&lt;font style=&quot;forced-color-adjust: none; color: rgb(255, 255, 0);&quot;&gt;P&lt;/font&gt;&lt;/b&gt;" style="text;whiteSpace=wrap;html=1;labelBackgroundColor=none;" vertex="1" parent="1">
                    <mxGeometry x="679" y="67" width="30" height="43" as="geometry"/>
                </mxCell>
                <mxCell id="111" value="&lt;b style=&quot;forced-color-adjust: none; font-family: &amp;quot;CMU Sans Serif&amp;quot;; font-style: normal; font-variant-ligatures: normal; font-variant-caps: normal; letter-spacing: normal; orphans: 2; text-align: center; text-indent: 0px; text-transform: none; widows: 2; word-spacing: 0px; -webkit-text-stroke-width: 0px; white-space: normal; text-decoration-thickness: initial; text-decoration-style: initial; text-decoration-color: initial; font-size: 40px;&quot;&gt;&lt;font style=&quot;forced-color-adjust: none; color: rgb(255, 102, 255);&quot;&gt;P&lt;/font&gt;&lt;/b&gt;" style="text;whiteSpace=wrap;html=1;labelBackgroundColor=none;" vertex="1" parent="1">
                    <mxGeometry x="244" y="71" width="30" height="43" as="geometry"/>
                </mxCell>
                <mxCell id="112" style="edgeStyle=orthogonalEdgeStyle;rounded=1;orthogonalLoop=1;jettySize=auto;html=1;exitX=0;exitY=0.25;exitDx=0;exitDy=0;entryX=0.387;entryY=0.056;entryDx=0;entryDy=0;entryPerimeter=0;curved=0;" edge="1" parent="1" source="78" target="95">
                    <mxGeometry relative="1" as="geometry"/>
                </mxCell>
                <mxCell id="113" value="&lt;b style=&quot;forced-color-adjust: none; font-family: &amp;quot;CMU Sans Serif&amp;quot;; font-style: normal; font-variant-ligatures: normal; font-variant-caps: normal; letter-spacing: normal; orphans: 2; text-align: center; text-indent: 0px; text-transform: none; widows: 2; word-spacing: 0px; -webkit-text-stroke-width: 0px; white-space: normal; text-decoration-thickness: initial; text-decoration-style: initial; text-decoration-color: initial; font-size: 40px;&quot;&gt;&lt;font style=&quot;forced-color-adjust: none;&quot;&gt;P&lt;/font&gt;&lt;/b&gt;" style="text;whiteSpace=wrap;html=1;labelBackgroundColor=none;fontColor=#FF6666;" vertex="1" parent="1">
                    <mxGeometry x="215" y="586" width="30" height="43" as="geometry"/>
                </mxCell>
                <mxCell id="114" value="&lt;b style=&quot;forced-color-adjust: none; font-family: &amp;quot;CMU Sans Serif&amp;quot;; font-style: normal; font-variant-ligatures: normal; font-variant-caps: normal; letter-spacing: normal; orphans: 2; text-align: center; text-indent: 0px; text-transform: none; widows: 2; word-spacing: 0px; -webkit-text-stroke-width: 0px; white-space: normal; text-decoration-thickness: initial; text-decoration-style: initial; text-decoration-color: initial; font-size: 40px;&quot;&gt;&lt;font style=&quot;forced-color-adjust: none;&quot;&gt;P&lt;/font&gt;&lt;/b&gt;" style="text;whiteSpace=wrap;html=1;labelBackgroundColor=none;fontColor=#00FFFF;" vertex="1" parent="1">
                    <mxGeometry x="686" y="586" width="30" height="43" as="geometry"/>
                </mxCell>
                <mxCell id="115" value="Cluster 1" style="text;align=center;verticalAlign=middle;resizable=0;points=[];autosize=1;strokeColor=none;fillColor=none;fontStyle=0;fontSize=20;fontFamily=CMU Sans Serif;" vertex="1" parent="1">
                    <mxGeometry x="406.00000000000006" y="670" width="100" height="40" as="geometry"/>
                </mxCell>
                <mxCell id="116" value="&lt;b&gt;&lt;font style=&quot;font-size: 25px;&quot;&gt;...&lt;/font&gt;&lt;/b&gt;" style="text;html=1;align=center;verticalAlign=middle;whiteSpace=wrap;rounded=0;fontFamily=CMU Sans Serif;" vertex="1" parent="1">
                    <mxGeometry x="426" y="609" width="60" height="30" as="geometry"/>
                </mxCell>
                <mxCell id="117" value="Learner 1" style="text;align=center;verticalAlign=middle;resizable=0;points=[];autosize=1;strokeColor=none;fillColor=none;fontStyle=0;fontSize=20;fontFamily=CMU Sans Serif;" vertex="1" parent="1">
                    <mxGeometry x="248.79000000000008" y="630" width="100" height="40" as="geometry"/>
                </mxCell>
                <mxCell id="118" value="Learner N" style="text;align=center;verticalAlign=middle;resizable=0;points=[];autosize=1;strokeColor=none;fillColor=none;fontStyle=0;fontSize=20;fontFamily=CMU Sans Serif;" vertex="1" parent="1">
                    <mxGeometry x="584" y="630" width="110" height="40" as="geometry"/>
                </mxCell>
                <mxCell id="119" value="" style="group" vertex="1" connectable="0" parent="1">
                    <mxGeometry x="280" y="720" width="334.39" height="170" as="geometry"/>
                </mxCell>
                <mxCell id="120" value="" style="rounded=0;whiteSpace=wrap;html=1;fontStyle=0;fontFamily=CMU Sans Serif;fillColor=#cccccc;" vertex="1" parent="119">
                    <mxGeometry width="334.39" height="170" as="geometry"/>
                </mxCell>
                <mxCell id="121" value="&lt;span style=&quot;font-size: 18px;&quot;&gt;&lt;b style=&quot;&quot;&gt;&lt;font color=&quot;#ffffff&quot;&gt;L&lt;br&gt;E&lt;br&gt;G&lt;br&gt;E&lt;br&gt;N&lt;br&gt;D&lt;/font&gt;&lt;/b&gt;&lt;/span&gt;" style="rounded=0;whiteSpace=wrap;html=1;fillColor=#000000;strokeColor=#000000;fontStyle=0;fontFamily=CMU Sans Serif;strokeWidth=2;" vertex="1" parent="119">
                    <mxGeometry width="20" height="170" as="geometry"/>
                </mxCell>
                <mxCell id="122" value="" style="ellipse;whiteSpace=wrap;html=1;aspect=fixed;fillColor=light-dark(#ff656a, #ff656a);strokeColor=none;strokeWidth=2;" vertex="1" parent="119">
                    <mxGeometry x="29.999999999999886" y="12.090000000000032" width="26.36" height="26.36" as="geometry"/>
                </mxCell>
                <mxCell id="123" value="&lt;font style=&quot;color: rgb(0, 0, 0);&quot;&gt;&lt;span style=&quot;font-size: 16px;&quot;&gt;Learner 1&lt;/span&gt;&lt;/font&gt;" style="rounded=1;whiteSpace=wrap;html=1;fillColor=#FFFFFF;strokeColor=none;fontStyle=0;fontFamily=CMU Sans Serif;strokeWidth=2;verticalAlign=middle;" vertex="1" parent="119">
                    <mxGeometry x="64.38999999999999" y="14.32000000000005" width="100" height="21.91" as="geometry"/>
                </mxCell>
                <mxCell id="124" value="&lt;font style=&quot;color: rgb(0, 0, 0);&quot;&gt;&lt;span style=&quot;font-size: 16px;&quot;&gt;Learner 2&lt;/span&gt;&lt;/font&gt;" style="rounded=1;whiteSpace=wrap;html=1;fillColor=#FFFFFF;strokeColor=none;fontStyle=0;fontFamily=CMU Sans Serif;strokeWidth=2;verticalAlign=middle;" vertex="1" parent="119">
                    <mxGeometry x="64.38999999999999" y="52.23000000000002" width="100" height="21.91" as="geometry"/>
                </mxCell>
                <mxCell id="125" value="" style="ellipse;whiteSpace=wrap;html=1;aspect=fixed;fillColor=light-dark(#45fffe, #45fffe);strokeColor=none;strokeWidth=2;" vertex="1" parent="119">
                    <mxGeometry x="29.999999999999886" y="50" width="26.36" height="26.36" as="geometry"/>
                </mxCell>
                <mxCell id="126" value="&lt;font style=&quot;color: rgb(0, 0, 0);&quot;&gt;&lt;span style=&quot;font-size: 16px;&quot;&gt;Cluster 1&lt;br&gt;'Aggregations'&lt;/span&gt;&lt;/font&gt;" style="rounded=1;whiteSpace=wrap;html=1;fillColor=#FFFFFF;strokeColor=none;fontStyle=0;fontFamily=CMU Sans Serif;strokeWidth=2;verticalAlign=middle;" vertex="1" parent="119">
                    <mxGeometry x="64.38999999999999" y="83" width="100" height="43" as="geometry"/>
                </mxCell>
                <mxCell id="127" value="" style="ellipse;whiteSpace=wrap;html=1;aspect=fixed;fillColor=light-dark(#ff65f8, #ff65f8);strokeColor=none;strokeWidth=2;" vertex="1" parent="119">
                    <mxGeometry x="29.999999999999886" y="90" width="26.36" height="26.36" as="geometry"/>
                </mxCell>
                <mxCell id="128" value="" style="ellipse;whiteSpace=wrap;html=1;aspect=fixed;fillColor=light-dark(#fdff52, #fdff52);strokeColor=none;strokeWidth=2;" vertex="1" parent="119">
                    <mxGeometry x="30.169999999999902" y="130" width="26.36" height="26.36" as="geometry"/>
                </mxCell>
                <mxCell id="129" value="&lt;font style=&quot;color: rgb(0, 0, 0);&quot;&gt;&lt;span style=&quot;font-size: 16px;&quot;&gt;Global Root&lt;/span&gt;&lt;/font&gt;" style="rounded=1;whiteSpace=wrap;html=1;fillColor=#FFFFFF;strokeColor=none;fontStyle=0;fontFamily=CMU Sans Serif;strokeWidth=2;verticalAlign=middle;" vertex="1" parent="119">
                    <mxGeometry x="64.38999999999999" y="132.23000000000002" width="100" height="21.91" as="geometry"/>
                </mxCell>
                <mxCell id="130" value="" style="group" vertex="1" connectable="0" parent="119">
                    <mxGeometry x="175.70999999999992" width="148.17000000000002" height="40" as="geometry"/>
                </mxCell>
                <mxCell id="131" value="&lt;b style=&quot;forced-color-adjust: none; font-family: &amp;quot;CMU Sans Serif&amp;quot;; font-style: normal; font-variant-ligatures: normal; font-variant-caps: normal; letter-spacing: normal; orphans: 2; text-align: center; text-indent: 0px; text-transform: none; widows: 2; word-spacing: 0px; -webkit-text-stroke-width: 0px; white-space: normal; text-decoration-thickness: initial; text-decoration-style: initial; text-decoration-color: initial; font-size: 40px;&quot;&gt;&lt;font style=&quot;forced-color-adjust: none; color: rgb(0, 0, 0);&quot;&gt;D&lt;/font&gt;&lt;/b&gt;" style="text;whiteSpace=wrap;html=1;labelBackgroundColor=none;" vertex="1" parent="130">
                    <mxGeometry width="40.17" height="40" as="geometry"/>
                </mxCell>
                <mxCell id="132" value="&lt;font style=&quot;color: rgb(0, 0, 0);&quot;&gt;&lt;span style=&quot;font-size: 16px;&quot;&gt;Local Data&lt;/span&gt;&lt;/font&gt;" style="rounded=1;whiteSpace=wrap;html=1;fillColor=#FFFFFF;strokeColor=none;fontStyle=0;fontFamily=CMU Sans Serif;strokeWidth=2;verticalAlign=middle;" vertex="1" parent="130">
                    <mxGeometry x="48.17000000000007" y="16.539999999999964" width="100" height="21.91" as="geometry"/>
                </mxCell>
                <mxCell id="133" value="" style="group" vertex="1" connectable="0" parent="119">
                    <mxGeometry x="175.70999999999992" y="50" width="148.17000000000002" height="50" as="geometry"/>
                </mxCell>
                <mxCell id="134" value="&lt;b style=&quot;forced-color-adjust: none; font-family: &amp;quot;CMU Sans Serif&amp;quot;; font-style: normal; font-variant-ligatures: normal; font-variant-caps: normal; letter-spacing: normal; orphans: 2; text-align: center; text-indent: 0px; text-transform: none; widows: 2; word-spacing: 0px; -webkit-text-stroke-width: 0px; white-space: normal; text-decoration-thickness: initial; text-decoration-style: initial; text-decoration-color: initial; font-size: 40px;&quot;&gt;&lt;font style=&quot;forced-color-adjust: none; color: rgb(0, 0, 0);&quot;&gt;M&lt;/font&gt;&lt;/b&gt;" style="text;whiteSpace=wrap;html=1;labelBackgroundColor=none;" vertex="1" parent="133">
                    <mxGeometry width="50.17" height="50" as="geometry"/>
                </mxCell>
                <mxCell id="135" value="&lt;font style=&quot;color: rgb(0, 0, 0);&quot;&gt;&lt;span style=&quot;font-size: 16px;&quot;&gt;ML Model&lt;/span&gt;&lt;/font&gt;" style="rounded=1;whiteSpace=wrap;html=1;fillColor=#FFFFFF;strokeColor=none;fontStyle=0;fontFamily=CMU Sans Serif;strokeWidth=2;verticalAlign=middle;" vertex="1" parent="133">
                    <mxGeometry x="48.170000000000016" y="16.539999999999964" width="100" height="21.91" as="geometry"/>
                </mxCell>
                <mxCell id="136" value="" style="group" vertex="1" connectable="0" parent="119">
                    <mxGeometry x="177.19999999999993" y="100" width="145.19" height="50" as="geometry"/>
                </mxCell>
                <mxCell id="137" value="&lt;font style=&quot;color: rgb(0, 0, 0);&quot;&gt;&lt;span style=&quot;font-size: 16px;&quot;&gt;Model Parameters&lt;/span&gt;&lt;/font&gt;" style="rounded=1;whiteSpace=wrap;html=1;fillColor=#FFFFFF;strokeColor=none;fontStyle=0;fontFamily=CMU Sans Serif;strokeWidth=2;verticalAlign=middle;" vertex="1" parent="136">
                    <mxGeometry x="45.19" y="3.7000000000000455" width="100" height="42.59" as="geometry"/>
                </mxCell>
                <mxCell id="138" value="&lt;b style=&quot;forced-color-adjust: none; font-family: &amp;quot;CMU Sans Serif&amp;quot;; font-style: normal; font-variant-ligatures: normal; font-variant-caps: normal; letter-spacing: normal; orphans: 2; text-align: center; text-indent: 0px; text-transform: none; widows: 2; word-spacing: 0px; -webkit-text-stroke-width: 0px; white-space: normal; text-decoration-thickness: initial; text-decoration-style: initial; text-decoration-color: initial; font-size: 40px;&quot;&gt;&lt;font style=&quot;forced-color-adjust: none; color: rgb(0, 0, 0);&quot;&gt;P&lt;/font&gt;&lt;/b&gt;" style="text;whiteSpace=wrap;html=1;labelBackgroundColor=none;" vertex="1" parent="136">
                    <mxGeometry width="37.19" height="50" as="geometry"/>
                </mxCell>
            </root>
        </mxGraphModel>
    </diagram>
</mxfile>
